<svg xmlns="http://www.w3.org/2000/svg" width="500" height="400" viewBox="0 0 500 400"><rect width="100%" height="100%" fill="#DDDDDD"/><path fill="#999999" d="m123.35 190.875-1.76 2.43q-.3.38-.58.59-.28.22-.82.22-.52 0-1-.31-.49-.31-1.16-.71-.68-.39-1.61-.7t-2.31-.31q-1.75 0-3.08.64-1.32.63-2.2 1.82-.87 1.19-1.31 2.87-.43 1.69-.43 3.83 0 2.21.47 3.94.48 1.73 1.37 2.9t2.16 1.78 2.86.61 2.58-.39q.98-.39 1.66-.87.67-.47 1.17-.86t1.12-.39q.81 0 1.22.62l1.92 2.43q-1.11 1.3-2.41 2.17-1.29.88-2.68 1.41-1.39.52-2.87.74-1.47.21-2.93.21-2.56 0-4.83-.95-2.27-.96-3.97-2.8-1.7-1.83-2.68-4.49-.99-2.66-.99-6.06 0-3.06.88-5.66.88-2.61 2.58-4.51t4.21-2.98 5.78-1.08q3.1 0 5.44 1 2.33.99 4.2 2.86m16.68-3.86q3.08 0 5.6 1 2.53.99 4.32 2.83 1.8 1.84 2.77 4.48.97 2.65.97 5.92 0 3.29-.97 5.94-.97 2.64-2.77 4.5-1.79 1.87-4.32 2.87-2.52.99-5.6.99-3.1 0-5.64-.99-2.54-1-4.34-2.87-1.79-1.86-2.78-4.5-.98-2.65-.98-5.94 0-3.27.98-5.92.99-2.64 2.78-4.48 1.8-1.84 4.34-2.83 2.54-1 5.64-1m0 23.41q3.46 0 5.12-2.33 1.66-2.32 1.66-6.8t-1.66-6.83-5.12-2.35q-3.51 0-5.2 2.36-1.68 2.36-1.68 6.82 0 4.45 1.68 6.79 1.69 2.34 5.2 2.34m25.44 4.72h-6.67v-27.7h4.07q1.3 0 1.7 1.21l.44 2.06q.73-.82 1.52-1.49.8-.67 1.7-1.16.91-.49 1.95-.77t2.28-.28q2.62 0 4.3 1.41 1.69 1.42 2.53 3.77.65-1.38 1.62-2.36.97-.99 2.13-1.61t2.47-.92q1.31-.29 2.64-.29 2.29 0 4.07.7t3 2.05q1.21 1.35 1.85 3.29.63 1.95.63 4.46v17.63h-6.67v-17.63q0-2.65-1.16-3.98-1.16-1.34-3.4-1.34-1.02 0-1.9.35t-1.54 1.01-1.04 1.66-.38 2.3v17.63h-6.69v-17.63q0-2.78-1.13-4.05-1.12-1.27-3.28-1.27-1.45 0-2.71.72-1.25.71-2.33 1.95zm38.77-27.7h6.69v27.7h-6.69zm7.61-8.07q0 .86-.35 1.61-.35.76-.93 1.33-.58.56-1.36.9-.79.34-1.68.34-.86 0-1.63-.34t-1.34-.9q-.57-.57-.9-1.33-.34-.75-.34-1.61 0-.9.34-1.68.33-.78.9-1.35t1.34-.9q.77-.34 1.63-.34.89 0 1.68.34.78.33 1.36.9t.93 1.35.35 1.68m11.67 9.28.45 2.19q.84-.84 1.77-1.55.93-.72 1.97-1.22t2.23-.78 2.59-.28q2.27 0 4.03.77 1.75.77 2.93 2.16 1.17 1.39 1.78 3.32t.61 4.25v17.63h-6.67v-17.63q0-2.54-1.16-3.93-1.17-1.39-3.54-1.39-1.73 0-3.24.78-1.51.79-2.86 2.14v20.03h-6.67v-27.7h4.07q1.3 0 1.71 1.21m34.8 11.96q1.24 0 2.16-.33.92-.34 1.52-.93.61-.6.92-1.44.31-.83.31-1.83 0-2.05-1.23-3.26-1.22-1.2-3.68-1.2t-3.69 1.2q-1.23 1.21-1.23 3.26 0 .97.31 1.81.32.83.92 1.44.61.61 1.54.95.93.33 2.15.33m7.53 15.77q0-.81-.48-1.32-.49-.51-1.33-.8-.83-.28-1.96-.42-1.12-.13-2.37-.2-1.26-.07-2.59-.12-1.34-.05-2.61-.22-1.11.62-1.79 1.46-.69.84-.69 1.95 0 .72.36 1.36.37.63 1.16 1.09.8.46 2.07.72t3.1.26q1.87 0 3.22-.29 1.35-.28 2.22-.78.88-.5 1.29-1.19.4-.69.4-1.5m-1.32-28h7.96v2.49q0 1.18-1.43 1.45l-2.48.46q.57 1.43.57 3.14 0 2.05-.83 3.71-.82 1.66-2.28 2.82t-3.44 1.8q-1.99.63-4.28.63-.81 0-1.57-.08-.75-.08-1.48-.22-1.3.79-1.3 1.76 0 .84.77 1.23t2.04.55 2.89.2 3.32.18q1.7.13 3.32.47t2.89 1.07 2.04 1.98q.77 1.26.77 3.23 0 1.83-.91 3.56-.9 1.73-2.62 3.08-1.71 1.35-4.21 2.17-2.5.83-5.68.83-3.13 0-5.46-.61-2.32-.61-3.86-1.62t-2.29-2.34q-.76-1.32-.76-2.75 0-1.94 1.18-3.25 1.17-1.31 3.22-2.1-1.1-.56-1.75-1.51-.65-.94-.65-2.48 0-.62.23-1.28.23-.67.67-1.31.45-.65 1.13-1.23.67-.58 1.59-1.04-2.11-1.14-3.31-3.03t-1.2-4.42q0-2.06.82-3.72.83-1.66 2.3-2.83 1.47-1.18 3.48-1.8t4.39-.62q1.78 0 3.35.37 1.56.36 2.86 1.06m43.71 2.06-1.51 2.4q-.27.43-.57.61-.29.17-.75.17-.49 0-1.04-.27-.56-.27-1.29-.61-.72-.33-1.66-.6-.93-.27-2.2-.27-1.97 0-3.09.83-1.12.84-1.12 2.19 0 .89.58 1.5t1.54 1.07q.96.45 2.17.82 1.22.36 2.47.79 1.26.44 2.48.99 1.21.55 2.17 1.4.96.86 1.54 2.04.58 1.19.58 2.86 0 2-.72 3.69-.71 1.69-2.12 2.92-1.4 1.23-3.47 1.91-2.06.69-4.76.69-1.43 0-2.8-.25-1.36-.26-2.62-.72-1.25-.46-2.32-1.08-1.06-.62-1.87-1.35l1.54-2.54q.29-.46.7-.7.4-.24 1.02-.24t1.18.35q.55.35 1.28.75.73.41 1.71.76.99.35 2.5.35 1.19 0 2.04-.28.85-.29 1.4-.74.56-.46.81-1.07.26-.61.26-1.26 0-.97-.58-1.59t-1.54-1.08-2.19-.82q-1.22-.37-2.51-.8-1.28-.43-2.51-1.01t-2.18-1.47q-.96-.89-1.54-2.19t-.58-3.13q0-1.7.67-3.24.68-1.54 1.99-2.69t3.26-1.84q1.96-.68 4.53-.68 2.86 0 5.21.94 2.35.95 3.91 2.49m17.58-3.43q3.08 0 5.6 1 2.53.99 4.32 2.83 1.8 1.84 2.77 4.48.97 2.65.97 5.92 0 3.29-.97 5.94-.97 2.64-2.77 4.5-1.79 1.87-4.32 2.87-2.52.99-5.6.99-3.11 0-5.64-.99-2.54-1-4.34-2.87-1.79-1.86-2.78-4.5-.98-2.65-.98-5.94 0-3.27.98-5.92.99-2.64 2.78-4.48 1.8-1.84 4.34-2.83 2.53-1 5.64-1m0 23.41q3.45 0 5.11-2.33 1.67-2.32 1.67-6.8t-1.67-6.83q-1.66-2.35-5.11-2.35-3.51 0-5.2 2.36t-1.69 6.82q0 4.45 1.69 6.79t5.2 2.34m31.02-23.41q3.08 0 5.6 1 2.53.99 4.32 2.83 1.8 1.84 2.77 4.48.97 2.65.97 5.92 0 3.29-.97 5.94-.97 2.64-2.77 4.5-1.79 1.87-4.32 2.87-2.52.99-5.6.99-3.1 0-5.64-.99-2.54-1-4.34-2.87-1.79-1.86-2.78-4.5-.98-2.65-.98-5.94 0-3.27.98-5.92.99-2.64 2.78-4.48 1.8-1.84 4.34-2.83 2.54-1 5.64-1m0 23.41q3.46 0 5.12-2.33 1.66-2.32 1.66-6.8t-1.66-6.83-5.12-2.35q-3.51 0-5.2 2.36-1.68 2.36-1.68 6.82 0 4.45 1.68 6.79 1.69 2.34 5.2 2.34m24.54-21.77.46 2.19q.84-.84 1.77-1.55.93-.72 1.97-1.22t2.23-.78 2.59-.28q2.27 0 4.03.77 1.75.77 2.92 2.16 1.18 1.39 1.79 3.32.6 1.93.6 4.25v17.63h-6.66v-17.63q0-2.54-1.17-3.93-1.16-1.39-3.53-1.39-1.73 0-3.24.78-1.51.79-2.86 2.14v20.03h-6.67v-27.7h4.07q1.3 0 1.7 1.21"/></svg>